<?xml version="1.0"?>
<svg xmlns="http://www.w3.org/2000/svg" width="100" height="49" viewBox="0 0 49 24"><g fill="none" fill-rule="evenodd"><g fill-rule="nonzero" transform="translate(1 1)"><circle cx="19.412" cy="2.592" r="1.294" fill="#0F265C"/><circle cx="11" cy="19.412" r="1.294" fill="#0F265C"/><circle cx="19.412" cy="19.412" r="1.294" fill="#0F265C"/><circle cx="2.588" cy="11.002" r="1.294" fill="#0F265C"/><circle cx="2.588" cy="2.592" r="1.294" fill="#0F265C"/><path fill="#787F18" d="M19.4115804,8.41441595 C18.7712443,8.41428647 18.1538184,8.65263878 17.6797322,9.08299082 L17.6797322,9.07912058 C16.2734414,10.3451005 14.138072,10.3451005 12.7317812,9.07912058 L12.7317812,9.08299082 C11.6966235,8.14688305 11.6966235,13.8573899 12.7317812,12.9212822 L12.7317812,12.9251524 C14.138072,11.6591725 16.2734414,11.6591725 17.6797322,12.9251524 L17.6797322,12.9212822 C18.5369694,13.6946199 19.8029947,13.806374 20.7824939,13.1951679 C21.761993,12.5839618 22.2178052,11.3977836 21.8995937,10.2880946 C21.5813822,9.17840562 20.5661938,8.41388882 19.4115804,8.41441595 Z"/><path fill="#A1B220" d="M8.49067388,10.3781502 L8.48862112,10.3760963 C7.68708341,13.5903071 5.17696591,16.0999637 1.96215329,16.9013656 L1.96420605,16.9034196 C0.733940504,17.2084581 -0.0940232124,18.3598526 0.0085744589,19.6229873 C0.11117213,20.8861221 1.11410438,21.8888587 2.37747778,21.9914286 C3.64085117,22.0939984 4.792457,21.2661829 5.09754472,20.0361471 L5.09959749,20.0382011 C5.90114999,16.8240064 8.41126418,14.3143681 11.6260653,13.5129705 L11.6240126,13.5109166 C12.7773067,13.2249068 8.80543638,9.10924137 8.49067388,10.3781502 Z"/><path fill="#BFDF26" d="M12.9233403,9.27063389 C11.6571121,7.86460308 11.6571121,5.72962296 12.9233403,4.32359216 L12.9194063,4.32359216 C13.8557236,3.28863924 13.8025719,1.69780137 12.7992612,0.727629159 C11.7959504,-0.242543053 10.2039253,-0.242543053 9.20061459,0.727629159 C8.19730383,1.69780137 8.14415218,3.28863924 9.08046948,4.32359216 L9.07653057,4.32359216 C10.3427588,5.72962296 10.3427588,7.86460308 9.07653057,9.27063389 L9.08046948,9.27063389 C8.14415218,10.3055868 8.19730383,11.8964247 9.20061459,12.8665969 C10.2039253,13.8367691 11.7959504,13.8367691 12.7992612,12.8665969 C13.8025719,11.8964247 13.8557236,10.3055868 12.9194063,9.27063389 L12.9233403,9.27063389 Z"/></g><path fill="#0F265C" fill-rule="nonzero" d="M.812 5.082C.812 3.864 1.302 3.486 2.576 3.486 2.982 3.486 3.458 3.528 4.032 3.626L4.13 2.954C3.654 2.828 3.038 2.758 2.576 2.758.658 2.758 0 3.64 0 5.11L0 7.504C0 8.974.658 9.856 2.576 9.856 3.038 9.856 3.654 9.786 4.13 9.66L4.032 8.988C3.458 9.086 2.982 9.128 2.576 9.128 1.302 9.128.812 8.75.812 7.532L.812 5.082ZM14.629125 9.716 14.629125 4.298C14.629125 3.36 14.251125 2.758 13.187125 2.758 12.361125 2.758 11.115125 3.15 10.331125 3.514 10.149125 3.038 9.743125 2.758 9.015125 2.758 8.189125 2.758 6.971125 3.164 6.243125 3.514L6.187125 2.898 5.473125 2.898 5.473125 9.716 6.285125 9.716 6.285125 4.298C7.139125 3.85 8.343125 3.514 8.903125 3.514 9.379125 3.514 9.645125 3.696 9.645125 4.2L9.645125 9.716 10.457125 9.716 10.457125 4.298C11.311125 3.85 12.431125 3.514 13.075125 3.514 13.551125 3.514 13.817125 3.696 13.817125 4.2L13.817125 9.716 14.629125 9.716ZM16.18225 7.966C16.18225 9.198 16.78425 9.856 18.11425 9.856 18.87025 9.856 19.72425 9.59 20.41025 9.072L20.45225 9.716 21.19425 9.716 21.19425 0 20.38225.112 20.38225 2.982C19.59825 2.828 18.99625 2.758 18.28225 2.758 16.74225 2.758 16.18225 3.612 16.18225 4.858L16.18225 7.966ZM20.38225 8.26C19.73825 8.778 19.01025 9.128 18.17025 9.128 17.24625 9.128 16.99425 8.75 16.99425 7.966L16.99425 4.858C16.99425 3.934 17.35825 3.486 18.25425 3.486 18.91225 3.486 19.64025 3.57 20.38225 3.724L20.38225 8.26Z" transform="translate(27 9.284)"/></g></svg>
