<svg width="60" height="60" viewBox="0 0 60 60" fill="none" xmlns="http://www.w3.org/2000/svg">
<path fill-rule="evenodd" clip-rule="evenodd" d="M5.45455 29.9985C5.45455 26.7753 6.08943 23.5837 7.32296 20.6059C8.55648 17.628 10.3645 14.9223 12.6437 12.6431C14.923 10.364 17.6289 8.55607 20.6069 7.3226C23.5849 6.08914 26.7766 5.45428 30 5.45428C33.2234 5.45428 36.4151 6.08914 39.3931 7.3226C42.3711 8.55607 45.077 10.364 47.3563 12.6431C49.6355 14.9223 51.4435 17.628 52.677 20.6059C53.9106 23.5837 54.5455 26.7753 54.5455 29.9985C54.5455 36.5081 51.9594 42.751 47.3563 47.354C42.7531 51.9569 36.5099 54.5428 30 54.5428C23.4901 54.5428 17.2469 51.9569 12.6437 47.354C8.04058 42.751 5.45455 36.5081 5.45455 29.9985ZM30 0C13.4318 0 0 13.4312 0 29.9985C0 46.5659 13.4318 59.9971 30 59.9971C46.5682 59.9971 60 46.5659 60 29.9985C60 13.4312 46.5682 0 30 0ZM43.0909 20.7263C43.3058 20.4398 43.4622 20.1137 43.551 19.7668C43.6399 19.4199 43.6596 19.0588 43.609 18.7043C43.5583 18.3498 43.4383 18.0087 43.2558 17.7005C43.0734 17.3924 42.832 17.1232 42.5455 16.9083C42.2589 16.6934 41.9329 16.537 41.5859 16.4482C41.239 16.3593 40.8779 16.3396 40.5234 16.3903C40.1688 16.4409 39.8277 16.5609 39.5196 16.7433C39.2114 16.9258 38.9422 17.1672 38.7273 17.4537L24.2509 36.7564L18.2918 30.7976C17.7774 30.3008 17.0885 30.0259 16.3735 30.0322C15.6584 30.0384 14.9743 30.3252 14.4687 30.8308C13.963 31.3365 13.6762 32.0205 13.67 32.7355C13.6638 33.4506 13.9387 34.1394 14.4355 34.6538L22.6173 42.8352C22.8935 43.1115 23.226 43.3251 23.592 43.4617C23.958 43.5984 24.3491 43.6547 24.7389 43.6271C25.1286 43.5994 25.5078 43.4883 25.8509 43.3014C26.1939 43.1144 26.4928 42.8559 26.7273 42.5434L43.0909 20.7263Z" fill="#00AAAD"/>
</svg>
